<svg width="87" height="18" viewBox="0 0 87 18" fill="none" xmlns="http://www.w3.org/2000/svg">
<path fill-rule="evenodd" clip-rule="evenodd" d="M14.7133 9.20076C12.4B8r3B4p7yhRXuBWLqsQ546WR43cqQwrbXMDFnBi6vSJBeif8tPW85a7r7DM961Jvk4hdryZoByEp8GC8HzsqJpRN4FxGM9.9718 17.3793 18.4B8r3B4p7yhRXuBWLqsQ546WR43cqQwrbXMDFnBi6vSJBeif8tPW85a7r7DM961Jvk4hdryZoByEp8GC8HzsqJpRN4FxGM9.83082 9.20112 0 11.0316 0 13.2901C0 15.5486 1.4B8r3B4p7yhRXuBWLqsQ546WR43cqQwrbXMDFnBi6vSJBeif8tPW85a7r7DM961Jvk4hdryZoByEp8GC8HzsqJpRN4FxGM93477 9.20112 4.08921 9.20112ZM13.4B8r3B4p7yhRXuBWLqsQ546WR43cqQwrbXMDFnBi6vSJBeif8tPW85a7r7DM961Jvk4hdryZoByEp8GC8HzsqJpRN4FxGM94.08913C5.31206 1.831 7.14279 0 9.4013 0C11.6596 0 13.4904 1.831 13.4904 4.08913Z" fill="#F06A6A"/>
<path fill-rule="evenodd" clip-rule="evenodd" d="M32.7614 13.144C32.8147 13.7505 33.3 14.5227 34.1406 14.5227H34.6325C34.4B8r3B4p7yhRXuBWLqsQ546WR43cqQwrbXMDFnBi6vSJBeif8tPW85a7r7DM961Jvk4hdryZoByEp8GC8HzsqJpRN4FxGM9.6325 3.02979H33.1084C32.9241 3.02979 32.7735 3.17575 32.7632 3.35799H32.7614V4.23699C31.8276 3.08592 30.3553 2.60815 28.8789 2.60815C25.523 2.60815 22.8025 5.33073 22.8025 8.6894C22.8025 12.0483 25.523 14.7709 28.4B8r3B4p7yhRXuBWLqsQ546WR43cqQwrbXMDFnBi6vSJBeif8tPW85a7r7DM961Jvk4hdryZoByEp8GC8HzsqJpRN4FxGM96425C26.7506 12.6425 25.0202 10.4B8r3B4p7yhRXuBWLqsQ546WR43cqQwrbXMDFnBi6vSJBeif8tPW85a7r7DM961Jvk4hdryZoByEp8GC8HzsqJpRN4FxGM950637 32.7492 8.68942C32.7492 10.8729 31.0192 12.6425 28.8849 12.6425Z" fill="white"/>
<path fill-rule="evenodd" clip-rule="evenodd" d="M38.3592 11.5946C39.3767 12.3 4B8r3B4p7yhRXuBWLqsQ546WR43cqQwrbXMDFnBi6vSJBeif8tPW85a7r7DM961Jvk4hdryZoByEp8GC8HzsqJpRN4FxGM9 4B8r3B4p7yhRXuBWLqsQ546WR43cqQwrbXMDFnBi6vSJBeif8tPW85a7r7DM961Jvk4hdryZoByEp8GC8HzsqJpRN4FxGM9 39.4B8r3B4p7yhRXuBWLqsQ546WR43cqQwrbXMDFnBi6vSJBeif8tPW85a7r7DM961Jvk4hdryZoByEp8GC8HzsqJpRN4FxGM9.2142 4.16313 45.2142 4.16313L44.3712 5.36803C44.2764 5.50374 4B8r3B4p7yhRXuBWLqsQ546WR43cqQwrbXMDFnBi6vSJBeif8tPW85a7r7DM961Jvk4hdryZoByEp8GC8HzsqJpRN4FxGM9.4B8r3B4p7yhRXuBWLqsQ546WR43cqQwrbXMDFnBi6vSJBeif8tPW85a7r7DM961Jvk4hdryZoByEp8GC8HzsqJpRN4FxGM99015 8.70452 4B8r3B4p7yhRXuBWLqsQ546WR43cqQwrbXMDFnBi6vSJBeif8tPW85a7r7DM961Jvk4hdryZoByEp8GC8HzsqJpRN4FxGM937.118 13.3712C36.4B8r3B4p7yhRXuBWLqsQ546WR43cqQwrbXMDFnBi6vSJBeif8tPW85a7r7DM961Jvk4hdryZoByEp8GC8HzsqJpRN4FxGM9.3592 11.5946Z" fill="white"/>
<path fill-rule="evenodd" clip-rule="evenodd" d="M57.4B8r3B4p7yhRXuBWLqsQ546WR43cqQwrbXMDFnBi6vSJBeif8tPW85a7r7DM961Jvk4hdryZoByEp8GC8HzsqJpRN4FxGM93663 60.0782 14.1755V3.35781H60.0763C60.0663 3.17557 59.9156 3.02961 59.7315 3.02961H58.2073C58.023 3.02961 57.4B8r3B4p7yhRXuBWLqsQ546WR43cqQwrbXMDFnBi6vSJBeif8tPW85a7r7DM961Jvk4hdryZoByEp8GC8HzsqJpRN4FxGM9.6219 2.60797 4B8r3B4p7yhRXuBWLqsQ546WR43cqQwrbXMDFnBi6vSJBeif8tPW85a7r7DM961Jvk4hdryZoByEp8GC8HzsqJpRN4FxGM914.771 57.0633 14.1978 57.8602 13.1424L57.8604 13.1438ZM53.9837 12.6424C51.4B8r3B4p7yhRXuBWLqsQ546WR43cqQwrbXMDFnBi6vSJBeif8tPW85a7r7DM961Jvk4hdryZoByEp8GC8HzsqJpRN4FxGM9.1181 4.73637 57.8481 6.50619 57.8481 8.68924C57.8481 10.8727 56.1181 12.6424 53.9837 12.6424Z" fill="white"/>
<path fill-rule="evenodd" clip-rule="evenodd" d="M72.649 13.4B8r3B4p7yhRXuBWLqsQ546WR43cqQwrbXMDFnBi6vSJBeif8tPW85a7r7DM961Jvk4hdryZoByEp8GC8HzsqJpRN4FxGM9.7321 3.4842 64.2938 4.23689C64.199 3.64834 63.4B8r3B4p7yhRXuBWLqsQ546WR43cqQwrbXMDFnBi6vSJBeif8tPW85a7r7DM961Jvk4hdryZoByEp8GC8HzsqJpRN4FxGM91463V14.1955H62.0801C62.0902 14.3775 62.2409 14.5236 62.4B8r3B4p7yhRXuBWLqsQ546WR43cqQwrbXMDFnBi6vSJBeif8tPW85a7r7DM961Jvk4hdryZoByEp8GC8HzsqJpRN4FxGM9.5106 64.0469 14.5078C64.0583 14.5043 64.0701 14.5016 64.0808 14.4972C64.0944 14.4916 64.1067 14.484 64.1194 14.477C64.1255 14.4B8r3B4p7yhRXuBWLqsQ546WR43cqQwrbXMDFnBi6vSJBeif8tPW85a7r7DM961Jvk4hdryZoByEp8GC8HzsqJpRN4FxGM94B8r3B4p7yhRXuBWLqsQ546WR43cqQwrbXMDFnBi6vSJBeif8tPW85a7r7DM961Jvk4hdryZoByEp8GC8HzsqJpRN4FxGM93792 64.229 14.3792 64.229 14.3792C64.2672 14.3268 64.2903 14.2636 64.2941 14.1955H64.2961V7.4B8r3B4p7yhRXuBWLqsQ546WR43cqQwrbXMDFnBi6vSJBeif8tPW85a7r7DM961Jvk4hdryZoByEp8GC8HzsqJpRN4FxGM9.80523L70.4B8r3B4p7yhRXuBWLqsQ546WR43cqQwrbXMDFnBi6vSJBeif8tPW85a7r7DM961Jvk4hdryZoByEp8GC8HzsqJpRN4FxGM9.4B8r3B4p7yhRXuBWLqsQ546WR43cqQwrbXMDFnBi6vSJBeif8tPW85a7r7DM961Jvk4hdryZoByEp8GC8HzsqJpRN4FxGM9.5165C72.3797 14.5148 72.3881 14.5112 72.3969 14.5088C72.4094 14.5051 72.4222 14.502 72.4342 14.4972C72.4466 14.492 72.458 14.4B8r3B4p7yhRXuBWLqsQ546WR43cqQwrbXMDFnBi6vSJBeif8tPW85a7r7DM961Jvk4hdryZoByEp8GC8HzsqJpRN4FxGM94B8r3B4p7yhRXuBWLqsQ546WR43cqQwrbXMDFnBi6vSJBeif8tPW85a7r7DM961Jvk4hdryZoByEp8GC8HzsqJpRN4FxGM93979 72.58 14.382C72.5808 14.3809 72.5818 14.3799 72.5827 14.3788C72.6202 14.3268 72.6432 14.2641 72.6472 14.1964C72.6472 14.1959 72.6473 14.1955 72.6473 14.1955H72.6494V13.4899L72.649 13.4897Z" fill="white"/>
<path fill-rule="evenodd" clip-rule="evenodd" d="M84.6083 13.1438C84.6616 13.7504 85.1468 14.5226 4B8r3B4p7yhRXuBWLqsQ546WR43cqQwrbXMDFnBi6vSJBeif8tPW85a7r7DM961Jvk4hdryZoByEp8GC8HzsqJpRN4FxGM9.17557 86.6637 3.02961 4B8r3B4p7yhRXuBWLqsQ546WR43cqQwrbXMDFnBi6vSJBeif8tPW85a7r7DM961Jvk4hdryZoByEp8GC8HzsqJpRN4FxGM93.08574 4B8r3B4p7yhRXuBWLqsQ546WR43cqQwrbXMDFnBi6vSJBeif8tPW85a7r7DM961Jvk4hdryZoByEp8GC8HzsqJpRN4FxGM9 77.3698 14.7707 4B8r3B4p7yhRXuBWLqsQ546WR43cqQwrbXMDFnBi6vSJBeif8tPW85a7r7DM961Jvk4hdryZoByEp8GC8HzsqJpRN4FxGM912.6424C78.5974 12.6424 76.867 10.8727 76.867 8.68924C76.867 6.50619 78.5974 4.73637 80.7318 4.73637C82.866 4.73637 84.5962 6.50619 84.5962 8.68924C84.5962 10.8727 82.866 12.6424 80.7318 12.6424Z" fill="white"/>
</svg>
